<svg width="29" height="29" viewBox="0 0 29 29" fill="none" xmlns="http://www.w3.org/2000/svg">
<rect x="0.5" y="0.5" width="28" height="28" rx="14" stroke="#404040"/>
<path d="M16.766 17.164C16.6487 17.164 16.546 17.1237 16.458 17.043C16.3773 16.9623 16.337 16.8597 16.337 16.735C16.337 16.6177 16.3773 16.515 16.458 16.427L17.459 15.426H9.847C9.72233 15.426 9.61967 15.3857 9.539 15.305C9.45833 15.2243 9.418 15.1217 9.418 14.997C9.418 14.8797 9.45833 14.7807 9.539 14.7C9.61967 14.612 9.72233 14.568 9.847 14.568H17.459L16.458 13.567C16.3773 13.4863 16.337 13.391 16.337 13.281C16.337 13.1563 16.3773 13.0537 16.458 12.973C16.5387 12.885 16.6413 12.841 16.766 12.841C16.8833 12.841 16.9823 12.8813 17.063 12.962L18.812 14.711C18.8927 14.7917 18.933 14.887 18.933 14.997C18.933 15.1143 18.8927 15.2133 18.812 15.294L17.063 17.032C16.9823 17.12 16.8833 17.164 16.766 17.164Z" fill="#404040"/>
</svg>
