<svg width="10" height="6" viewBox="0 0 10 6" fill="none" xmlns="http://www.w3.org/2000/svg">
<path d="M7.766 5.164C7.64867 5.164 7.546 5.12367 7.458 5.043C7.37733 4.96233 7.337 4.85967 7.337 4.735C7.337 4.61767 7.37733 4.515 7.458 4.427L8.459 3.426H0.847C0.722333 3.426 0.619667 3.38567 0.539 3.305C0.458333 3.22433 0.418 3.12167 0.418 2.997C0.418 2.87967 0.458333 2.78067 0.539 2.7C0.619667 2.612 0.722333 2.568 0.847 2.568H8.459L7.458 1.567C7.37733 1.48633 7.337 1.391 7.337 1.281C7.337 1.15633 7.37733 1.05367 7.458 0.973C7.53867 0.885 7.64133 0.841 7.766 0.841C7.88333 0.841 7.98233 0.881333 8.063 0.962L9.812 2.711C9.89267 2.79167 9.933 2.887 9.933 2.997C9.933 3.11433 9.89267 3.21333 9.812 3.294L8.063 5.032C7.98233 5.12 7.88333 5.164 7.766 5.164Z" fill="white"/>
</svg>
