<svg width="29" height="29" viewBox="0 0 29 29" fill="none" xmlns="http://www.w3.org/2000/svg">
<rect x="28.5" y="28.5" width="28" height="28" rx="14" transform="rotate(-180 28.5 28.5)" stroke="#404040"/>
<path d="M12.234 11.836C12.3513 11.836 12.454 11.8763 12.542 11.957C12.6227 12.0377 12.663 12.1403 12.663 12.265C12.663 12.3823 12.6227 12.485 12.542 12.573L11.541 13.574L19.153 13.574C19.2777 13.574 19.3803 13.6143 19.461 13.695C19.5417 13.7757 19.582 13.8783 19.582 14.003C19.582 14.1203 19.5417 14.2193 19.461 14.3C19.3803 14.388 19.2777 14.432 19.153 14.432L11.541 14.432L12.542 15.433C12.6227 15.5137 12.663 15.609 12.663 15.719C12.663 15.8437 12.6227 15.9463 12.542 16.027C12.4613 16.115 12.3587 16.159 12.234 16.159C12.1167 16.159 12.0177 16.1187 11.937 16.038L10.188 14.289C10.1073 14.2083 10.067 14.113 10.067 14.003C10.067 13.8857 10.1073 13.7867 10.188 13.706L11.937 11.968C12.0177 11.88 12.1167 11.836 12.234 11.836Z" fill="#404040"/>
</svg>
