<svg width="15" height="12" viewBox="0 0 15 12" fill="none" xmlns="http://www.w3.org/2000/svg">
<path d="M13.4733 2.94044L12.9874 2.82264L13.4733 2.94043C13.6304 2.29235 13.102 1.75 12.4998 1.75H4.7195L4.61439 1.26825C4.51223 0.799921 4.08698 0.5 3.63602 0.5H1.5C0.978599 0.5 0.5 0.903814 0.5 1.46875V1.78125C0.5 2.34619 0.978599 2.75 1.5 2.75H2.55322L3.86085 8.74327C3.54119 9.02965 3.33333 9.44004 3.33333 9.90625C3.33333 10.8164 4.11041 11.5 5 11.5C5.88959 11.5 6.66667 10.8164 6.66667 9.90625C6.66667 9.81004 6.65775 9.71607 6.64077 9.625H9.35923C9.34225 9.71607 9.33333 9.81004 9.33333 9.90625C9.33333 10.8164 10.1104 11.5 11 11.5C11.8896 11.5 12.6667 10.8164 12.6667 9.90625C12.6667 9.41117 12.4329 8.97954 12.079 8.69175L12.1096 8.56543C12.1932 8.22057 12.0827 7.90566 11.8703 7.68646C12.1661 7.57744 12.4082 7.33408 12.4884 7.00292L13.4733 2.94044Z" stroke="#FF9900"/>
</svg>
