<?xml version="1.0" encoding="utf-8"?>
<!-- Generator: Adobe Illustrator 18.0.0, SVG Export Plug-In . SVG Version: 6.00 Build 0)  -->
<!DOCTYPE svg PUBLIC "-//W3C//DTD SVG 1.1//EN" "http://www.w3.org/Graphics/SVG/1.1/DTD/svg11.dtd">
<svg version="1.1" id="Слой_1" xmlns="http://www.w3.org/2000/svg" xmlns:xlink="http://www.w3.org/1999/xlink" x="0px" y="0px"
	 viewBox="0 0 142.349 70.987" enable-background="new 0 0 142.349 70.987" xml:space="preserve">
<g>
	<g>
		<path fill="#000" d="M134.236,56.937H8.262c-0.553,0-1-0.448-1-1v-6.944c0-7.168,5.832-13,13-13h101.975
			c7.168,0,13,5.832,13,13v6.944C135.236,56.489,134.789,56.937,134.236,56.937z M9.262,54.937h123.975v-5.944
			c0-6.065-4.935-11-11-11H20.262c-6.065,0-11,4.935-11,11V54.937z"/>
		<path fill="#000" d="M123.817,37.993H18.681c-0.553,0-1-0.448-1-1V12.75C17.681,5.72,23.4,0,30.431,0h81.637
			c7.03,0,12.75,5.72,12.75,12.75v24.243C124.817,37.545,124.37,37.993,123.817,37.993z M19.681,35.993h103.137V12.75
			c0-5.928-4.822-10.75-10.75-10.75H30.431c-5.928,0-10.75,4.822-10.75,10.75V35.993z"/>
		<g>
			<g>
				<path fill="#000" d="M66.514,37.993h-36.94c-0.553,0-1-0.448-1-1V22.053c0-0.283,0.12-0.552,0.329-0.742
					c3.556-3.213,10.89-5.209,19.141-5.209s15.586,1.996,19.142,5.209c0.209,0.189,0.329,0.459,0.329,0.742v14.939
					C67.514,37.545,67.066,37.993,66.514,37.993z M30.573,35.993h34.94v-13.48c-3.293-2.689-10.068-4.41-17.471-4.41
					s-14.177,1.721-17.47,4.41V35.993z"/>
			</g>
			<g>
				<path fill="#000" d="M112.925,37.993H75.985c-0.553,0-1-0.448-1-1V22.053c0-0.283,0.12-0.552,0.329-0.742
					c3.555-3.213,10.889-5.209,19.141-5.209s15.586,1.996,19.141,5.209c0.209,0.189,0.329,0.459,0.329,0.742v14.939
					C113.925,37.545,113.478,37.993,112.925,37.993z M76.985,35.993h34.939v-13.48c-3.293-2.689-10.067-4.41-17.47-4.41
					s-14.177,1.721-17.47,4.41V35.993z"/>
			</g>
		</g>
		<path fill="#000" d="M127.765,64.987H17.418c-0.553,0-1-0.448-1-1V56.41c0-0.552,0.447-1,1-1h110.347c0.553,0,1,0.448,1,1
			v7.577C128.765,64.54,128.317,64.987,127.765,64.987z M18.418,62.987h108.347V57.41H18.418V62.987z"/>
		<path fill="#000" d="M18.207,65.146H1c-0.553,0-1-0.448-1-1V24.019c0-3.843,3.127-6.969,6.97-6.969h11.237c0.553,0,1,0.448,1,1
			s-0.447,1-1,1H6.97c-2.74,0-4.97,2.229-4.97,4.969v39.127h16.207c0.553,0,1,0.448,1,1S18.76,65.146,18.207,65.146z"/>
		<path fill="#000" d="M141.349,65.146h-17.208c-0.553,0-1-0.448-1-1s0.447-1,1-1h16.208V24.019c0-2.74-2.229-4.969-4.97-4.969
			h-11.238c-0.553,0-1-0.448-1-1s0.447-1,1-1h11.238c3.843,0,6.97,3.126,6.97,6.969v40.127
			C142.349,64.698,141.901,65.146,141.349,65.146z"/>
	</g>
	<path fill="#000" d="M27.837,70.987H17.654c-0.553,0-1-0.448-1-1v-5.92c0-0.552,0.447-1,1-1s1,0.448,1,1v4.92h8.183v-4.92
		c0-0.552,0.447-1,1-1s1,0.448,1,1v5.92C28.837,70.539,28.39,70.987,27.837,70.987z"/>
	<path fill="#000" d="M126.817,70.987h-10.183c-0.553,0-1-0.448-1-1v-5.92c0-0.552,0.447-1,1-1s1,0.448,1,1v4.92h8.183v-4.92
		c0-0.552,0.447-1,1-1s1,0.448,1,1v5.92C127.817,70.539,127.37,70.987,126.817,70.987z"/>
</g>
</svg>
