<?xml version="1.0" encoding="utf-8"?>
<!-- Generator: Adobe Illustrator 18.0.0, SVG Export Plug-In . SVG Version: 6.00 Build 0)  -->
<!DOCTYPE svg PUBLIC "-//W3C//DTD SVG 1.1//EN" "http://www.w3.org/Graphics/SVG/1.1/DTD/svg11.dtd">
<svg version="1.1" id="Слой_1" xmlns="http://www.w3.org/2000/svg" xmlns:xlink="http://www.w3.org/1999/xlink" x="0px" y="0px"
	 viewBox="0 0 144.559 73.281" enable-background="new 0 0 144.559 73.281" xml:space="preserve">
<g>
	<g>
		<path fill="#000" d="M93.225,72.145c-0.553,0-1-0.448-1-1V9.43c0-4.014-3.266-7.28-7.28-7.28L8.09,2C8.086,2,8.082,2,8.078,2
			C6.457,2,4.933,2.63,3.786,3.776c-1.15,1.149-1.784,2.677-1.783,4.302l0.02,41.898c0,0.552-0.447,1-1,1h0c-0.552,0-1-0.447-1-1
			L0.003,8.079c-0.001-2.161,0.84-4.191,2.37-5.718C3.898,0.838,5.923,0,8.078,0c0.005,0,0.011,0,0.017,0l76.852,0.15
			c5.115,0,9.278,4.163,9.278,9.28v61.715C94.225,71.697,93.777,72.145,93.225,72.145z"/>
		<path fill="#000" d="M12.041,73.031H1.858c-0.552,0-1-0.448-1-1v-5.92c0-0.552,0.448-1,1-1s1,0.448,1,1v4.92h8.182v-4.92
			c0-0.552,0.448-1,1-1s1,0.448,1,1v5.92C13.041,72.583,12.593,73.031,12.041,73.031z"/>
		<path fill="#000" d="M42.666,73.281H32.484c-0.552,0-1-0.448-1-1v-5.92c0-0.552,0.448-1,1-1s1,0.448,1,1v4.92h8.182v-4.92
			c0-0.552,0.448-1,1-1s1,0.448,1,1v5.92C43.666,72.833,43.218,73.281,42.666,73.281z"/>
		<path fill="#000" d="M92.801,73.031H82.619c-0.553,0-1-0.448-1-1v-5.92c0-0.552,0.447-1,1-1s1,0.448,1,1v4.92h8.182v-4.92
			c0-0.552,0.447-1,1-1s1,0.448,1,1v5.92C93.801,72.583,93.354,73.031,92.801,73.031z"/>
		<path fill="#000" d="M47.408,46.487c-0.552,0-1-0.448-1-1V1.818c0-0.552,0.448-1,1-1s1,0.448,1,1v43.669
			C48.408,46.04,47.96,46.487,47.408,46.487z"/>
		<path fill="#000" d="M92.62,67.111H1.83c-0.552,0-1-0.448-1-1s0.448-1,1-1h89.79V51.403H44.25c-0.552,0-1-0.448-1-1
			s0.448-1,1-1h48.37c0.553,0,1,0.448,1,1v15.708C93.62,66.664,93.173,67.111,92.62,67.111z"/>
		<g>
			<path fill="#000" d="M42,20.819H7.5c-0.552,0-1-0.448-1-1s0.448-1,1-1H42c0.552,0,1,0.448,1,1S42.552,20.819,42,20.819z"/>
			<path fill="#000" d="M13.669,25.069c-0.552,0-1-0.448-1-1v-9.25c0-0.552,0.448-1,1-1s1,0.448,1,1v9.25
				C14.669,24.622,14.222,25.069,13.669,25.069z"/>
			<path fill="#000" d="M36.544,25.069c-0.552,0-1-0.448-1-1v-9.25c0-0.552,0.448-1,1-1s1,0.448,1,1v9.25
				C37.544,24.622,37.097,25.069,36.544,25.069z"/>
		</g>
		<g>
			<path fill="#000" d="M87.789,20.861h-34.5c-0.552,0-1-0.448-1-1s0.448-1,1-1h34.5c0.553,0,1,0.448,1,1
				S88.342,20.861,87.789,20.861z"/>
			<path fill="#000" d="M59.459,25.111c-0.553,0-1-0.448-1-1v-9.25c0-0.552,0.447-1,1-1s1,0.448,1,1v9.25
				C60.459,24.664,60.012,25.111,59.459,25.111z"/>
			<path fill="#000" d="M82.334,25.111c-0.553,0-1-0.448-1-1v-9.25c0-0.552,0.447-1,1-1s1,0.448,1,1v9.25
				C83.334,24.664,82.887,25.111,82.334,25.111z"/>
		</g>
	</g>
	<g>
		<path fill="#000" d="M143.058,51.403c-0.553,0-1-0.448-1-1v-8.148c0-3.921-3.19-7.111-7.111-7.111h-29.048
			c-3.921,0-7.111,3.19-7.111,7.111v8.148c0,0.552-0.447,1-1,1s-1-0.448-1-1v-8.148c0-5.024,4.087-9.111,9.111-9.111h29.048
			c5.024,0,9.111,4.087,9.111,9.111v8.148C144.058,50.956,143.61,51.403,143.058,51.403z"/>
		<path fill="#000" d="M93.058,50.737c-0.553,0-1-0.448-1-1v-8.148c0-3.921-3.19-7.111-7.111-7.111H55.898
			c-3.921,0-7.112,3.19-7.112,7.111v8.148c0,0.552-0.448,1-1,1s-1-0.448-1-1v-8.148c0-5.024,4.087-9.111,9.112-9.111h29.048
			c5.024,0,9.111,4.087,9.111,9.111v8.148C94.058,50.289,93.61,50.737,93.058,50.737z"/>
		<path fill="#000" d="M47.725,50.737c-0.552,0-1-0.448-1-1v-8.148c0-3.921-3.19-7.111-7.111-7.111h-3.946c-0.552,0-1-0.448-1-1
			s0.448-1,1-1h3.946c5.024,0,9.111,4.087,9.111,9.111v8.148C48.725,50.289,48.277,50.737,47.725,50.737z"/>
		<path fill="#000" d="M143.559,66.145c-0.553,0-1-0.448-1-1V9.43c0-4.014-3.267-7.28-7.281-7.28h-29.93
			c-3.67,0-6.655,2.985-6.655,6.655v41.338c0,0.552-0.447,1-1,1s-1-0.448-1-1V8.805c0-4.772,3.883-8.655,8.655-8.655h29.93
			c5.118,0,9.281,4.163,9.281,9.28v55.714C144.559,65.697,144.111,66.145,143.559,66.145z"/>
		<path fill="#000" d="M108.377,73.031H98.195c-0.553,0-1-0.448-1-1v-5.92c0-0.552,0.447-1,1-1s1,0.448,1,1v4.92h8.182v-4.92
			c0-0.552,0.447-1,1-1s1,0.448,1,1v5.92C109.377,72.583,108.93,73.031,108.377,73.031z"/>
		<path fill="#000" d="M143.135,73.031h-10.183c-0.553,0-1-0.448-1-1v-5.92c0-0.552,0.447-1,1-1s1,0.448,1,1v4.92h8.183v-4.92
			c0-0.552,0.447-1,1-1s1,0.448,1,1v5.92C144.135,72.583,143.688,73.031,143.135,73.031z"/>
		<path fill="#000" d="M142.953,67.111H98.166c-0.553,0-1-0.448-1-1V50.403c0-0.552,0.447-1,1-1h44.787c0.553,0,1,0.448,1,1
			v15.708C143.953,66.664,143.506,67.111,142.953,67.111z M99.166,65.111h42.787V51.403H99.166V65.111z"/>
		<g>
			<path fill="#000" d="M138.123,20.861h-34.5c-0.553,0-1-0.448-1-1s0.447-1,1-1h34.5c0.553,0,1,0.448,1,1
				S138.676,20.861,138.123,20.861z"/>
			<path fill="#000" d="M109.792,25.111c-0.553,0-1-0.448-1-1v-9.25c0-0.552,0.447-1,1-1s1,0.448,1,1v9.25
				C110.792,24.664,110.345,25.111,109.792,25.111z"/>
			<path fill="#000" d="M132.667,25.111c-0.553,0-1-0.448-1-1v-9.25c0-0.552,0.447-1,1-1s1,0.448,1,1v9.25
				C133.667,24.664,133.22,25.111,132.667,25.111z"/>
		</g>
	</g>
	<path fill="#000" d="M43,67.153H1c-0.552,0-1-0.448-1-1v-33c0-0.552,0.448-1,1-1h32c6.065,0,11,4.935,11,11v23
		C44,66.705,43.552,67.153,43,67.153z M2,65.153h40v-22c0-4.962-4.038-9-9-9H2V65.153z"/>
</g>
</svg>
