<?xml version="1.0" encoding="utf-8"?>
<!-- Generator: Adobe Illustrator 18.0.0, SVG Export Plug-In . SVG Version: 6.00 Build 0)  -->
<!DOCTYPE svg PUBLIC "-//W3C//DTD SVG 1.1//EN" "http://www.w3.org/Graphics/SVG/1.1/DTD/svg11.dtd">
<svg version="1.1" id="Слой_1" xmlns="http://www.w3.org/2000/svg" xmlns:xlink="http://www.w3.org/1999/xlink" x="0px" y="0px"
	 viewBox="0 0 149.569 72.881" enable-background="new 0 0 149.569 72.881" xml:space="preserve">
<g>
	<g>
		<g>
			<path fill="#000" d="M125.02,51.253c-0.553,0-1-0.448-1-1V45.36c0-5.716-4.65-10.366-10.366-10.366H36.111
				c-5.716,0-10.366,4.65-10.366,10.366v4.894c0,0.552-0.448,1-1,1s-1-0.448-1-1V45.36c0-6.819,5.547-12.366,12.366-12.366h77.542
				c6.818,0,12.366,5.547,12.366,12.366v4.894C126.02,50.806,125.572,51.253,125.02,51.253z"/>
			<path fill="#000" d="M125.14,16.992c-0.553,0-1-0.448-1-1V9.697c0-4.244-3.452-7.697-7.696-7.697H32.968
				c-4.244,0-7.697,3.453-7.697,7.697v5.294c0,0.552-0.448,1-1,1s-1-0.448-1-1V9.697C23.271,4.35,27.621,0,32.968,0h83.476
				c5.347,0,9.696,4.35,9.696,9.697v6.295C126.14,16.544,125.692,16.992,125.14,16.992z"/>
			<path fill="#000" d="M23.955,72.881H13.773c-0.552,0-1-0.448-1-1v-5.92c0-0.552,0.448-1,1-1s1,0.448,1,1v4.92h8.182v-4.92
				c0-0.552,0.448-1,1-1s1,0.448,1,1v5.92C24.955,72.434,24.507,72.881,23.955,72.881z"/>
			<path fill="#000" d="M135.717,72.881h-10.182c-0.553,0-1-0.448-1-1v-5.92c0-0.552,0.447-1,1-1s1,0.448,1,1v4.92h8.182v-4.92
				c0-0.552,0.447-1,1-1s1,0.448,1,1v5.92C136.717,72.434,136.27,72.881,135.717,72.881z"/>
			<path fill="#000" d="M141.383,65.145H7.878c-1.26,0-2.286-1.024-2.288-2.285L5.458,18.122
				c-0.001-0.266,0.104-0.521,0.292-0.709c0.188-0.188,0.442-0.294,0.708-0.294h0l5.409,0.003
				c7.468,0.004,13.544,6.083,13.544,13.552v19.37h98.866l-0.047-19.41c-0.009-3.626,1.396-7.037,3.958-9.604
				c2.561-2.567,5.968-3.98,9.594-3.98l4.889,0c0.265,0,0.52,0.105,0.707,0.293s0.293,0.442,0.293,0.707v44.809
				C143.671,64.119,142.645,65.145,141.383,65.145z M7.461,19.119L7.59,62.854c0,0.001,0,0.002,0,0.003
				c0,0.159,0.129,0.288,0.288,0.288h133.505c0.159,0,0.288-0.129,0.288-0.288V19.049l-3.889,0c-3.091,0-5.995,1.205-8.179,3.393
				c-2.183,2.188-3.381,5.095-3.373,8.186l0.049,20.412c0.001,0.266-0.104,0.521-0.292,0.708c-0.188,0.188-0.442,0.294-0.708,0.294
				H24.412c-0.552,0-1-0.448-1-1v-20.37c0-6.366-5.179-11.548-11.545-11.552L7.461,19.119z"/>
		</g>
	</g>
	<path fill="#000" d="M29.562,35.827c-0.534,0-0.977-0.421-0.999-0.958C27.684,13.598,17.136,9.128,8.441,9.123
		c-0.001,0-0.002,0-0.003,0c-1.83,0-3.579,0.782-4.799,2.146c-1.221,1.365-1.804,3.192-1.599,5.012
		c0.055,0.486,0.318,0.923,0.724,1.198c0.405,0.275,0.908,0.358,1.381,0.231l2.051-0.557c0.539-0.144,1.083,0.17,1.227,0.703
		c0.145,0.533-0.17,1.083-0.703,1.227l-2.051,0.557c-1.036,0.281-2.141,0.097-3.029-0.507c-0.888-0.604-1.467-1.562-1.587-2.629
		c-0.269-2.385,0.496-4.78,2.096-6.569c1.599-1.788,3.891-2.813,6.29-2.813c0.001,0,0.003,0,0.004,0
		c7.834,0.004,21.125,3.604,22.119,27.663c0.023,0.552-0.406,1.018-0.958,1.041C29.59,35.827,29.576,35.827,29.562,35.827z"/>
	<path fill="#000" d="M120.008,35.827c-0.015,0-0.028,0-0.042-0.001c-0.552-0.022-0.98-0.488-0.958-1.041
		c0.993-24.059,14.284-27.658,22.118-27.663c0.002,0,0.004,0,0.005,0c2.398,0,4.69,1.025,6.29,2.813
		c1.6,1.789,2.363,4.183,2.096,6.569c-0.121,1.067-0.699,2.025-1.587,2.629c-0.889,0.604-1.993,0.788-3.029,0.507l-2.052-0.557
		c-0.533-0.145-0.848-0.694-0.703-1.227s0.696-0.846,1.227-0.703l2.052,0.557c0.475,0.126,0.977,0.043,1.382-0.231
		c0.404-0.275,0.668-0.712,0.723-1.198c0.205-1.82-0.378-3.647-1.599-5.012c-1.22-1.364-2.969-2.146-4.799-2.146
		c-0.001,0-0.002,0-0.002,0c-8.696,0.005-19.244,4.475-20.123,25.746C120.983,35.406,120.541,35.827,120.008,35.827z"/>
</g>
</svg>
