<?xml version="1.0" encoding="utf-8"?>
<!-- Generator: Adobe Illustrator 18.0.0, SVG Export Plug-In . SVG Version: 6.00 Build 0)  -->
<!DOCTYPE svg PUBLIC "-//W3C//DTD SVG 1.1//EN" "http://www.w3.org/Graphics/SVG/1.1/DTD/svg11.dtd">
<svg version="1.1" id="Слой_1" xmlns="http://www.w3.org/2000/svg" xmlns:xlink="http://www.w3.org/1999/xlink" x="0px" y="0px"
	 viewBox="0 0 165.082 72.881" enable-background="new 0 0 165.082 72.881" xml:space="preserve">
<g>
	<g>
		<path fill="#000" d="M61.425,51.253c-0.552,0-1-0.448-1-1V45.36c0-5.716-4.65-10.366-10.366-10.366H30.521
			c-5.716,0-10.366,4.65-10.366,10.366v4.894c0,0.552-0.448,1-1,1s-1-0.448-1-1V45.36c0-6.819,5.547-12.366,12.366-12.366h19.539
			c6.819,0,12.366,5.547,12.366,12.366v4.894C62.425,50.806,61.978,51.253,61.425,51.253z"/>
		<path fill="#000" d="M104.048,51.253c-0.552,0-1-0.448-1-1V45.36c0-5.716-4.65-10.366-10.366-10.366H73.144
			c-5.716,0-10.366,4.65-10.366,10.366v4.894c0,0.552-0.448,1-1,1s-1-0.448-1-1V45.36c0-6.819,5.547-12.366,12.366-12.366h19.539
			c6.819,0,12.366,5.547,12.366,12.366v4.894C105.048,50.806,104.601,51.253,104.048,51.253z"/>
		<path fill="#000" d="M146.671,51.253c-0.552,0-1-0.448-1-1V45.36c0-5.716-4.65-10.366-10.366-10.366h-19.539
			c-5.716,0-10.366,4.65-10.366,10.366v4.894c0,0.552-0.448,1-1,1s-1-0.448-1-1V45.36c0-6.819,5.547-12.366,12.366-12.366h19.539
			c6.819,0,12.366,5.547,12.366,12.366v4.894C147.671,50.806,147.224,51.253,146.671,51.253z"/>
		<path fill="#000" d="M146.551,37.993c-0.552,0-1-0.448-1-1V9.697c0-4.244-3.453-7.697-7.697-7.697H27.377
			c-4.244,0-7.696,3.453-7.696,7.697v27.296c0,0.552-0.448,1-1,1s-1-0.448-1-1V9.697C17.681,4.35,22.03,0,27.377,0h110.478
			c5.347,0,9.697,4.35,9.697,9.697v27.296C147.551,37.545,147.104,37.993,146.551,37.993z"/>
		<path fill="#000" d="M18.364,72.881H8.182c-0.552,0-1-0.448-1-1v-5.92c0-0.552,0.448-1,1-1s1,0.448,1,1v4.92h8.182v-4.92
			c0-0.552,0.448-1,1-1s1,0.448,1,1v5.92C19.364,72.434,18.917,72.881,18.364,72.881z"/>
		<path fill="#000" d="M157.128,72.881h-10.182c-0.552,0-1-0.448-1-1v-5.92c0-0.552,0.448-1,1-1s1,0.448,1,1v4.92h8.182v-4.92
			c0-0.552,0.448-1,1-1s1,0.448,1,1v5.92C158.128,72.434,157.681,72.881,157.128,72.881z"/>
		<path fill="#000" d="M162.794,65.145H2.288C1.026,65.145,0,64.119,0,62.857V27.363c0-5.687,4.627-10.314,10.314-10.314
			l8.517,0.079c0.549,0.005,0.991,0.451,0.991,1v31.915h125.867l-0.077-31.991c0-0.266,0.104-0.521,0.292-0.708
			c0.188-0.188,0.442-0.294,0.708-0.294h8.156c2.755,0,5.345,1.072,7.293,3.021c1.948,1.948,3.021,4.538,3.021,7.293v35.495
			C165.082,64.119,164.055,65.145,162.794,65.145z M10.305,19.049C5.729,19.049,2,22.779,2,27.363v35.494
			c0,0.159,0.129,0.288,0.288,0.288h160.506c0.159,0,0.288-0.129,0.288-0.288V27.363c0-2.221-0.865-4.309-2.435-5.879
			s-3.658-2.435-5.879-2.435l0,0h-7.153l0.077,31.991c0,0.266-0.104,0.521-0.292,0.708c-0.188,0.188-0.442,0.294-0.708,0.294H18.821
			c-0.552,0-1-0.448-1-1V19.119L10.305,19.049z"/>
	</g>
	<path fill="#000" d="M136.982,21.003H25.648c-0.552,0-1-0.448-1-1s0.448-1,1-1h111.333c0.552,0,1,0.448,1,1
		S137.534,21.003,136.982,21.003z"/>
	<path fill="#000" d="M104.982,30.336c-0.552,0-1-0.448-1-1V10.669c0-0.552,0.448-1,1-1s1,0.448,1,1v18.667
		C105.982,29.888,105.534,30.336,104.982,30.336z"/>
	<path fill="#000" d="M60.982,30.336c-0.552,0-1-0.448-1-1V10.669c0-0.552,0.448-1,1-1s1,0.448,1,1v18.667
		C61.982,29.888,61.534,30.336,60.982,30.336z"/>
</g>
</svg>
