<?xml version="1.0" encoding="utf-8"?>
<!-- Generator: Adobe Illustrator 18.0.0, SVG Export Plug-In . SVG Version: 6.00 Build 0)  -->
<!DOCTYPE svg PUBLIC "-//W3C//DTD SVG 1.1//EN" "http://www.w3.org/Graphics/SVG/1.1/DTD/svg11.dtd">
<svg version="1.1" id="Слой_1" xmlns="http://www.w3.org/2000/svg" xmlns:xlink="http://www.w3.org/1999/xlink" x="0px" y="0px"
	 viewBox="0 0 98.566 72.881" enable-background="new 0 0 98.566 72.881" xml:space="preserve">
<g>
	<g>
		<g>
			<path fill="#000" d="M74.016,51.253c-0.553,0-1-0.448-1-1V45.36c0-5.716-4.65-10.366-10.366-10.366H36.111
				c-5.716,0-10.366,4.65-10.366,10.366v4.894c0,0.552-0.447,1-1,1s-1-0.448-1-1V45.36c0-6.819,5.548-12.366,12.366-12.366H62.65
				c6.818,0,12.366,5.547,12.366,12.366v4.894C75.016,50.806,74.569,51.253,74.016,51.253z"/>
			<path fill="#000" d="M74.136,16.991c-0.553,0-1-0.448-1-1V9.697C73.136,5.453,69.684,2,65.44,2H32.968
				c-4.244,0-7.696,3.453-7.696,7.697v5.294c0,0.552-0.447,1-1,1s-1-0.448-1-1V9.697C23.271,4.35,27.621,0,32.968,0H65.44
				c5.347,0,9.696,4.35,9.696,9.697v6.294C75.136,16.543,74.689,16.991,74.136,16.991z"/>
			<path fill="#000" d="M23.955,72.881H13.773c-0.553,0-1-0.448-1-1v-5.92c0-0.552,0.447-1,1-1s1,0.448,1,1v4.92h8.182v-4.92
				c0-0.552,0.447-1,1-1s1,0.448,1,1v5.92C24.955,72.434,24.508,72.881,23.955,72.881z"/>
			<path fill="#000" d="M84.715,72.881H74.532c-0.553,0-1-0.448-1-1v-5.92c0-0.552,0.447-1,1-1s1,0.448,1,1v4.92h8.183v-4.92
				c0-0.552,0.447-1,1-1s1,0.448,1,1v5.92C85.715,72.434,85.267,72.881,84.715,72.881z"/>
			<path fill="#000" d="M90.38,65.145H7.879c-1.261,0-2.286-1.024-2.288-2.285L5.459,18.122
				c-0.001-0.266,0.104-0.521,0.292-0.709c0.188-0.188,0.442-0.294,0.708-0.294c0,0,0,0,0.001,0l5.408,0.003
				c7.468,0.004,13.544,6.083,13.544,13.552v19.37h47.862l-0.047-19.41c-0.009-3.625,1.396-7.036,3.957-9.603
				c2.562-2.567,5.969-3.981,9.595-3.981h4.889c0.553,0,1,0.448,1,1v44.809C92.668,64.119,91.641,65.145,90.38,65.145z
				 M7.462,19.119l0.129,43.735c0,0.001,0,0.002,0,0.003c0,0.159,0.129,0.288,0.288,0.288H90.38c0.159,0,0.288-0.129,0.288-0.288
				V19.049h-3.889c-3.091,0-5.995,1.206-8.179,3.394c-2.183,2.188-3.381,5.095-3.373,8.186l0.049,20.412
				c0.001,0.266-0.104,0.521-0.292,0.708c-0.188,0.188-0.442,0.294-0.708,0.294H24.412c-0.553,0-1-0.448-1-1v-20.37
				c0-6.367-5.18-11.549-11.546-11.552L7.462,19.119z"/>
		</g>
	</g>
	<path fill="#000" d="M29.561,35.827c-0.533,0-0.976-0.421-0.998-0.958C27.684,13.598,17.136,9.128,8.441,9.123
		c-0.001,0-0.002,0-0.003,0c-1.83,0-3.579,0.782-4.799,2.146c-1.221,1.365-1.804,3.192-1.599,5.012
		c0.055,0.486,0.318,0.923,0.723,1.198c0.405,0.274,0.905,0.359,1.382,0.231l2.052-0.557c0.527-0.145,1.081,0.169,1.227,0.703
		c0.145,0.533-0.17,1.083-0.703,1.227l-2.052,0.557c-1.036,0.282-2.141,0.096-3.029-0.507c-0.888-0.604-1.466-1.562-1.587-2.629
		c-0.268-2.386,0.496-4.78,2.096-6.569c1.6-1.788,3.892-2.813,6.29-2.813c0.001,0,0.003,0,0.005,0
		c7.834,0.004,21.124,3.604,22.118,27.662c0.022,0.552-0.406,1.018-0.958,1.041C29.59,35.826,29.576,35.827,29.561,35.827z"/>
	<path fill="#000" d="M69.005,35.827c-0.015,0-0.028,0-0.042-0.001c-0.552-0.022-0.98-0.488-0.958-1.041
		C68.999,10.727,82.289,7.127,90.123,7.123c0.002,0,0.004,0,0.005,0c2.398,0,4.69,1.025,6.29,2.813
		c1.6,1.789,2.363,4.183,2.096,6.569c-0.121,1.067-0.699,2.025-1.587,2.629c-0.888,0.603-1.993,0.789-3.029,0.507l-2.051-0.557
		c-0.533-0.145-0.848-0.694-0.703-1.227c0.146-0.533,0.702-0.847,1.227-0.703l2.051,0.557c0.477,0.127,0.977,0.042,1.382-0.231
		c0.404-0.275,0.668-0.712,0.723-1.198c0.205-1.82-0.378-3.647-1.599-5.012c-1.22-1.364-2.969-2.146-4.799-2.146
		c-0.001,0-0.002,0-0.003,0c-8.695,0.005-19.243,4.475-20.122,25.745C69.98,35.406,69.538,35.827,69.005,35.827z"/>
</g>
</svg>
