<svg width="15" height="11" viewBox="0 0 15 11" fill="none" xmlns="http://www.w3.org/2000/svg">
<path d="M11.9998 6.24997H2.99998C2.54999 6.24997 2.25 5.94997 2.25 5.49998C2.25 5.04999 2.54999 4.75 2.99998 4.75H11.9998C12.4498 4.75 12.7498 5.04999 12.7498 5.49998C12.7498 5.94997 12.4498 6.24997 11.9998 6.24997Z" fill="#404040"/>
<path d="M9.74989 10.7497H5.24998C4.79999 10.7497 4.5 10.4497 4.5 9.99974C4.5 9.54975 4.79999 9.24976 5.24998 9.24976H9.74989C10.1999 9.24976 10.4999 9.54975 10.4999 9.99974C10.4999 10.4497 10.1999 10.7497 9.74989 10.7497Z" fill="#404040"/>
<path d="M14.2497 1.74997H0.749984C0.299993 1.74997 0 1.44997 0 0.999984C0 0.549993 0.299993 0.25 0.749984 0.25H14.2497C14.6997 0.25 14.9997 0.549993 14.9997 0.999984C14.9997 1.44997 14.6997 1.74997 14.2497 1.74997Z" fill="#404040"/>
</svg>
