<svg width="13" height="13" viewBox="0 0 13 13" fill="none" xmlns="http://www.w3.org/2000/svg">
<path opacity="0.21" d="M12.8412 12.0752L9.60798 8.84207C10.3728 7.90825 10.8332 6.71551 10.8332 5.41661C10.8332 2.42989 8.40333 0 5.41661 0C2.42989 0 0 2.42989 0 5.41661C0 8.40333 2.42989 10.8332 5.41661 10.8332C6.71551 10.8332 7.90825 10.3728 8.84207 9.60798L12.0752 12.8412C12.287 13.0529 12.6294 13.0529 12.8412 12.8412C13.0529 12.6294 13.0529 12.287 12.8412 12.0752ZM1.08332 5.41661C1.08332 3.02734 3.02734 1.08332 5.41661 1.08332C7.80588 1.08332 9.7499 3.02734 9.7499 5.41661C9.7499 7.80588 7.80588 9.7499 5.41661 9.7499C3.02734 9.7499 1.08332 7.80588 1.08332 5.41661Z" fill="#404040"/>
</svg>
