<svg width="12" height="7" viewBox="0 0 12 7" fill="none" xmlns="http://www.w3.org/2000/svg">
<path d="M11.7265 0.474687C11.8089 0.20125 11.7265 0 11.33 0H10.0179C9.68373 0 9.53002 0.172812 9.4476 0.365312C9.4476 0.365312 8.77929 1.96437 7.83475 3.00125C7.52956 3.30094 7.38922 3.39719 7.22214 3.39719C7.13972 3.39719 7.01274 3.30094 7.01274 3.0275V0.474687C7.01274 0.146562 6.91918 0 6.64294 0H4.58011C4.37071 0 4.24596 0.153125 4.24596 0.295312C4.24596 0.605937 4.71823 0.678125 4.76724 1.55313V3.45187C4.76724 3.8675 4.6915 3.94406 4.52442 3.94406C4.07888 3.94406 2.99623 2.33844 2.35466 0.500938C2.22545 0.144375 2.09848 0 1.7621 0H0.449992C0.0757411 0 0 0.172812 0 0.365312C0 0.706562 0.445536 2.40188 2.07397 4.64188C3.15885 6.17094 4.68704 7 6.07711 7C6.91249 7 7.01497 6.81625 7.01497 6.49906C7.01497 5.03781 6.93923 4.9 7.35803 4.9C7.55184 4.9 7.88599 4.99625 8.66568 5.73344C9.55675 6.60844 9.70378 7 10.2028 7H11.5149C11.8891 7 12.0785 6.81625 11.9693 6.45312C11.7198 5.68969 10.0335 4.11906 9.95774 4.01406C9.76393 3.76906 9.81962 3.65969 9.95774 3.44094C9.95996 3.43875 11.5617 1.225 11.7265 0.474687Z" fill="#404040"/>
</svg>
