<svg width="12" height="8" viewBox="0 0 12 8" fill="none" xmlns="http://www.w3.org/2000/svg">
<path d="M11.7492 1.25173C11.6112 0.759021 11.2046 0.370979 10.6883 0.239292C9.75251 0 6 0 6 0C6 0 2.24751 0 1.31168 0.239292C0.795387 0.371 0.388762 0.759021 0.250752 1.25173C0 2.14479 0 4.00808 0 4.00808C0 4.00808 0 5.87138 0.250752 6.76444C0.388762 7.25715 0.795387 7.62902 1.31168 7.76071C2.24751 8 6 8 6 8C6 8 9.75249 8 10.6883 7.76071C11.2046 7.62902 11.6112 7.25715 11.7492 6.76444C12 5.87138 12 4.00808 12 4.00808C12 4.00808 12 2.14479 11.7492 1.25173ZM4.77272 5.69981V2.31635L7.90907 4.00813L4.77272 5.69981Z" fill="#404040"/>
</svg>
