<svg width="29" height="29" fill="none" xmlns="http://www.w3.org/2000/svg"><rect x=".5" y=".5" width="28" height="28" rx="14" stroke="#404040"/><path d="M16.766 17.164a.441.441 0 01-.308-.121.417.417 0 01-.121-.308c0-.117.04-.22.121-.308l1.001-1.001H9.847a.417.417 0 01-.308-.121.417.417 0 01-.121-.308c0-.117.04-.216.121-.297a.4.4 0 01.308-.132h7.612l-1.001-1.001a.391.391 0 01-.121-.286c0-.125.04-.227.121-.308a.4.4 0 01.308-.132c.117 0 .216.04.297.121l1.749 1.749c.08.08.121.176.121.286 0 .117-.04.216-.121.297l-1.749 1.738a.387.387 0 01-.297.132z" fill="#404040"/></svg>