<svg width="29" height="29" fill="none" xmlns="http://www.w3.org/2000/svg"><rect x="28.5" y="28.5" width="28" height="28" rx="14" transform="rotate(-180 28.5 28.5)" stroke="#404040"/><path d="M12.234 11.836c.117 0 .22.04.308.121.08.08.121.183.121.308a.44.44 0 01-.121.308l-1.001 1.001h7.612a.416.416 0 01.429.429c0 .117-.04.216-.121.297a.4.4 0 01-.308.132h-7.612l1.001 1.001c.08.08.121.176.121.286 0 .125-.04.227-.121.308a.4.4 0 01-.308.132.404.404 0 01-.297-.121l-1.749-1.749a.391.391 0 01-.121-.286c0-.117.04-.216.121-.297l1.749-1.738a.387.387 0 01.297-.132z" fill="#404040"/></svg>