<svg width="15" height="12" fill="none" xmlns="http://www.w3.org/2000/svg"><path d="M13.473 2.94l-.486-.117.486.117c.157-.648-.371-1.19-.973-1.19H4.72l-.106-.482A.993.993 0 003.636.5H1.5C.979.5.5.904.5 1.469v.312c0 .565.479.969 1 .969h1.053l1.308 5.993c-.32.287-.528.697-.528 1.163 0 .91.777 1.594 1.667 1.594s1.667-.684 1.667-1.594c0-.096-.01-.19-.026-.281h2.718a1.533 1.533 0 00-.026.281c0 .91.777 1.594 1.667 1.594s1.667-.684 1.667-1.594a1.56 1.56 0 00-.588-1.214l.03-.127a.927.927 0 00-.239-.879.974.974 0 00.618-.683l.985-4.063z" stroke="#F90"/></svg>