<svg xmlns="http://www.w3.org/2000/svg" viewBox="0 0 165.082 72.881"><path d="M61.425 51.253a1 1 0 01-1-1V45.36c0-5.716-4.65-10.366-10.366-10.366H30.521c-5.716 0-10.366 4.65-10.366 10.366v4.894a1 1 0 01-2 0V45.36c0-6.819 5.547-12.366 12.366-12.366H50.06c6.819 0 12.366 5.547 12.366 12.366v4.894a1 1 0 01-1.001.999z"/><path d="M104.048 51.253a1 1 0 01-1-1V45.36c0-5.716-4.65-10.366-10.366-10.366H73.144c-5.716 0-10.366 4.65-10.366 10.366v4.894a1 1 0 01-2 0V45.36c0-6.819 5.547-12.366 12.366-12.366h19.539c6.819 0 12.366 5.547 12.366 12.366v4.894a1 1 0 01-1.001.999z"/><path d="M146.671 51.253a1 1 0 01-1-1V45.36c0-5.716-4.65-10.366-10.366-10.366h-19.539c-5.716 0-10.366 4.65-10.366 10.366v4.894a1 1 0 01-2 0V45.36c0-6.819 5.547-12.366 12.366-12.366h19.539c6.819 0 12.366 5.547 12.366 12.366v4.894a.999.999 0 01-1 .999z"/><path d="M146.551 37.993a1 1 0 01-1-1V9.697c0-4.244-3.453-7.697-7.697-7.697H27.377c-4.244 0-7.696 3.453-7.696 7.697v27.296a1 1 0 01-2 0V9.697C17.681 4.35 22.03 0 27.377 0h110.478c5.347 0 9.697 4.35 9.697 9.697v27.296c-.001.552-.448 1-1.001 1zM18.364 72.881H8.182a1 1 0 01-1-1v-5.92a1 1 0 012 0v4.92h8.182v-4.92a1 1 0 012 0v5.92a1 1 0 01-1 1zm138.764 0h-10.182a1 1 0 01-1-1v-5.92a1 1 0 012 0v4.92h8.182v-4.92a1 1 0 012 0v5.92a1 1 0 01-1 1z"/><path d="M162.794 65.145H2.288A2.29 2.29 0 010 62.857V27.363c0-5.687 4.627-10.314 10.314-10.314l8.517.079a1 1 0 01.991 1v31.915h125.867l-.077-31.991a.997.997 0 011-1.002h8.156c2.755 0 5.345 1.072 7.293 3.021a10.246 10.246 0 013.021 7.293v35.495a2.29 2.29 0 01-2.288 2.286zM10.305 19.049C5.729 19.049 2 22.779 2 27.363v35.494c0 .159.129.288.288.288h160.506a.288.288 0 00.288-.288V27.363c0-2.221-.865-4.309-2.435-5.879s-3.658-2.435-5.879-2.435h-7.153l.077 31.991a.997.997 0 01-1 1.002H18.821a1 1 0 01-1-1V19.119l-7.516-.07z"/><path d="M136.982 21.003H25.648a1 1 0 010-2h111.333a1 1 0 01.001 2z"/><path d="M104.982 30.336a1 1 0 01-1-1V10.669a1 1 0 012 0v18.667a1 1 0 01-1 1zm-44 0a1 1 0 01-1-1V10.669a1 1 0 012 0v18.667a1 1 0 01-1 1z"/></svg>