<svg xmlns="http://www.w3.org/2000/svg" viewBox="0 0 149.569 72.881"><path d="M125.02 51.253a1 1 0 01-1-1V45.36c0-5.716-4.65-10.366-10.366-10.366H36.111c-5.716 0-10.366 4.65-10.366 10.366v4.894a1 1 0 01-2 0V45.36c0-6.819 5.547-12.366 12.366-12.366h77.542c6.818 0 12.366 5.547 12.366 12.366v4.894a.998.998 0 01-.999.999zm.12-34.261a1 1 0 01-1-1V9.697c0-4.244-3.452-7.697-7.696-7.697H32.968c-4.244 0-7.697 3.453-7.697 7.697v5.294a1 1 0 01-2 0V9.697C23.271 4.35 27.621 0 32.968 0h83.476c5.347 0 9.696 4.35 9.696 9.697v6.295a1 1 0 01-1 1zM23.955 72.881H13.773a1 1 0 01-1-1v-5.92a1 1 0 012 0v4.92h8.182v-4.92a1 1 0 012 0v5.92a1 1 0 01-1 1zm111.762 0h-10.182a1 1 0 01-1-1v-5.92a1 1 0 112 0v4.92h8.182v-4.92a1 1 0 112 0v5.92a1 1 0 01-1 1z"/><path d="M141.383 65.145H7.878A2.29 2.29 0 015.59 62.86l-.132-44.738a.997.997 0 011-1.003l5.409.003c7.468.004 13.544 6.083 13.544 13.552v19.37h98.866l-.047-19.41a13.457 13.457 0 013.958-9.604 13.46 13.46 0 019.594-3.98h4.889a.997.997 0 011 1v44.809a2.29 2.29 0 01-2.288 2.286zM7.461 19.119l.129 43.735v.003c0 .159.129.288.288.288h133.505a.288.288 0 00.288-.288V19.049h-3.889a11.479 11.479 0 00-8.179 3.393 11.47 11.47 0 00-3.373 8.186l.049 20.412a1 1 0 01-1 1.002H24.412a1 1 0 01-1-1v-20.37c0-6.366-5.179-11.548-11.545-11.552l-4.406-.001z"/><path d="M29.562 35.827a1 1 0 01-.999-.958C27.684 13.598 17.136 9.128 8.441 9.123h-.003c-1.83 0-3.579.782-4.799 2.146a6.444 6.444 0 00-1.599 5.012 1.68 1.68 0 002.105 1.429l2.051-.557a1 1 0 11.524 1.93l-2.051.557a3.673 3.673 0 01-4.616-3.136 8.447 8.447 0 012.096-6.569 8.447 8.447 0 016.29-2.813h.004c7.834.004 21.125 3.604 22.119 27.663a1 1 0 01-.958 1.041l-.042.001zm90.446 0l-.042-.001a1 1 0 01-.958-1.041c.993-24.059 14.284-27.658 22.118-27.663h.005a8.45 8.45 0 016.29 2.813 8.453 8.453 0 012.096 6.569 3.677 3.677 0 01-4.616 3.136l-2.052-.557a1 1 0 11.524-1.93l2.052.557a1.677 1.677 0 002.105-1.429 6.444 6.444 0 00-1.599-5.012 6.445 6.445 0 00-4.799-2.146h-.002c-8.696.005-19.244 4.475-20.123 25.746a1.002 1.002 0 01-.999.958z"/></svg>