<svg xmlns="http://www.w3.org/2000/svg" viewBox="0 0 142.349 70.987"><path d="M134.236 56.937H8.262a1 1 0 01-1-1v-6.944c0-7.168 5.832-13 13-13h101.975c7.168 0 13 5.832 13 13v6.944c-.001.552-.448 1-1.001 1zm-124.974-2h123.975v-5.944c0-6.065-4.935-11-11-11H20.262c-6.065 0-11 4.935-11 11v5.944z"/><path d="M123.817 37.993H18.681a1 1 0 01-1-1V12.75C17.681 5.72 23.4 0 30.431 0h81.637c7.03 0 12.75 5.72 12.75 12.75v24.243c-.001.552-.448 1-1.001 1zm-104.136-2h103.137V12.75c0-5.928-4.822-10.75-10.75-10.75H30.431c-5.928 0-10.75 4.822-10.75 10.75v23.243z"/><path d="M66.514 37.993h-36.94a1 1 0 01-1-1v-14.94c0-.283.12-.552.329-.742 3.556-3.213 10.89-5.209 19.141-5.209s15.586 1.996 19.142 5.209c.209.189.329.459.329.742v14.939a1.002 1.002 0 01-1.001 1.001zm-35.941-2h34.94v-13.48c-3.293-2.689-10.068-4.41-17.471-4.41s-14.177 1.721-17.47 4.41v13.48zm82.352 2h-36.94a1 1 0 01-1-1v-14.94c0-.283.12-.552.329-.742 3.555-3.213 10.889-5.209 19.141-5.209s15.586 1.996 19.141 5.209c.209.189.329.459.329.742v14.939a1 1 0 01-1 1.001zm-35.94-2h34.939v-13.48c-3.293-2.689-10.067-4.41-17.47-4.41s-14.177 1.721-17.47 4.41v13.48zm50.78 28.994H17.418a1 1 0 01-1-1V56.41a1 1 0 011-1h110.347a1 1 0 011 1v7.577a1 1 0 01-1 1zm-109.347-2h108.347V57.41H18.418v5.577z"/><path d="M18.207 65.146H1a1 1 0 01-1-1V24.019c0-3.843 3.127-6.969 6.97-6.969h11.237a1 1 0 110 2H6.97A4.975 4.975 0 002 24.019v39.127h16.207a1 1 0 110 2zm123.142 0h-17.208a1 1 0 110-2h16.208V24.019a4.975 4.975 0 00-4.97-4.969h-11.238a1 1 0 110-2h11.238c3.843 0 6.97 3.126 6.97 6.969v40.127a1 1 0 01-1 1z"/><path d="M27.837 70.987H17.654a1 1 0 01-1-1v-5.92a1 1 0 112 0v4.92h8.183v-4.92a1 1 0 112 0v5.92a1 1 0 01-1 1zm98.98 0h-10.183a1 1 0 01-1-1v-5.92a1 1 0 112 0v4.92h8.183v-4.92a1 1 0 112 0v5.92a1 1 0 01-1 1z"/></svg>