<svg xmlns="http://www.w3.org/2000/svg" viewBox="0 0 98.566 72.881"><path d="M74.016 51.253a1 1 0 01-1-1V45.36c0-5.716-4.65-10.366-10.366-10.366H36.111c-5.716 0-10.366 4.65-10.366 10.366v4.894a1 1 0 11-2 0V45.36c0-6.819 5.548-12.366 12.366-12.366H62.65c6.818 0 12.366 5.547 12.366 12.366v4.894a.999.999 0 01-1 .999zm.12-34.262a1 1 0 01-1-1V9.697C73.136 5.453 69.684 2 65.44 2H32.968c-4.244 0-7.696 3.453-7.696 7.697v5.294a1 1 0 11-2 0V9.697C23.271 4.35 27.621 0 32.968 0H65.44c5.347 0 9.696 4.35 9.696 9.697v6.294a1 1 0 01-1 1zm-50.181 55.89H13.773a1 1 0 01-1-1v-5.92a1 1 0 112 0v4.92h8.182v-4.92a1 1 0 112 0v5.92a1 1 0 01-1 1zm60.76 0H74.532a1 1 0 01-1-1v-5.92a1 1 0 112 0v4.92h8.183v-4.92a1 1 0 112 0v5.92a1 1 0 01-1 1z"/><path d="M90.38 65.145H7.879a2.29 2.29 0 01-2.288-2.285l-.132-44.738a.997.997 0 011-1.003h.001l5.408.003c7.468.004 13.544 6.083 13.544 13.552v19.37h47.862l-.047-19.41a13.46 13.46 0 013.957-9.603 13.466 13.466 0 019.595-3.981h4.889a1 1 0 011 1v44.809a2.29 2.29 0 01-2.288 2.286zM7.462 19.119l.129 43.735v.003c0 .159.129.288.288.288H90.38a.288.288 0 00.288-.288V19.049h-3.889a11.48 11.48 0 00-8.179 3.394 11.47 11.47 0 00-3.373 8.186l.049 20.412a1 1 0 01-1 1.002H24.412a1 1 0 01-1-1v-20.37c0-6.367-5.18-11.549-11.546-11.552l-4.404-.002z"/><path d="M29.561 35.827a1 1 0 01-.998-.958C27.684 13.598 17.136 9.128 8.441 9.123h-.003c-1.83 0-3.579.782-4.799 2.146a6.444 6.444 0 00-1.599 5.012 1.674 1.674 0 002.105 1.429l2.052-.557a1 1 0 11.524 1.93l-2.052.557a3.677 3.677 0 01-4.616-3.136 8.45 8.45 0 012.096-6.569 8.45 8.45 0 016.29-2.813h.005c7.834.004 21.124 3.604 22.118 27.662a1.001 1.001 0 01-1.001 1.043zm39.444 0l-.042-.001a1 1 0 01-.958-1.041c.994-24.058 14.284-27.658 22.118-27.662h.005a8.45 8.45 0 016.29 2.813 8.453 8.453 0 012.096 6.569 3.677 3.677 0 01-4.616 3.136l-2.051-.557a1 1 0 11.524-1.93l2.051.557a1.677 1.677 0 002.105-1.429 6.444 6.444 0 00-1.599-5.012 6.445 6.445 0 00-4.799-2.146h-.003c-8.695.005-19.243 4.475-20.122 25.745a1.002 1.002 0 01-.999.958z"/></svg>