<svg xmlns="http://www.w3.org/2000/svg" viewBox="0 0 144.559 73.281"><path d="M93.225 72.145a1 1 0 01-1-1V9.43c0-4.014-3.266-7.28-7.28-7.28L8.09 2h-.012c-1.621 0-3.145.63-4.292 1.776a6.037 6.037 0 00-1.783 4.302l.02 41.898a1 1 0 11-2 0L.003 8.079a8.018 8.018 0 012.37-5.718A8.019 8.019 0 018.078 0h.017l76.852.15c5.115 0 9.278 4.163 9.278 9.28v61.715a1 1 0 01-1 1zm-81.184.886H1.858a1 1 0 01-1-1v-5.92a1 1 0 012 0v4.92h8.182v-4.92a1 1 0 012 0v5.92a.999.999 0 01-.999 1zm30.625.25H32.484a1 1 0 01-1-1v-5.92a1 1 0 012 0v4.92h8.182v-4.92a1 1 0 012 0v5.92a1 1 0 01-1 1z"/><path d="M92.801 73.031H82.619a1 1 0 01-1-1v-5.92a1 1 0 112 0v4.92h8.182v-4.92a1 1 0 112 0v5.92a1 1 0 01-1 1zM47.408 46.487a1 1 0 01-1-1V1.818a1 1 0 012 0v43.669a1 1 0 01-1 1z"/><path d="M92.62 67.111H1.83a1 1 0 010-2h89.79V51.403H44.25a1 1 0 010-2h48.37a1 1 0 011 1v15.708a1 1 0 01-1 1zM42 20.819H7.5a1 1 0 010-2H42a1 1 0 010 2z"/><path d="M13.669 25.069a1 1 0 01-1-1v-9.25a1 1 0 012 0v9.25a1 1 0 01-1 1zm22.875 0a1 1 0 01-1-1v-9.25a1 1 0 012 0v9.25a1 1 0 01-1 1zm51.245-4.208h-34.5a1 1 0 010-2h34.5a1 1 0 110 2z"/><path d="M59.459 25.111a1 1 0 01-1-1v-9.25a1 1 0 112 0v9.25a1 1 0 01-1 1zm22.875 0a1 1 0 01-1-1v-9.25a1 1 0 112 0v9.25a1 1 0 01-1 1zm60.724 26.292a1 1 0 01-1-1v-8.148a7.12 7.12 0 00-7.111-7.111h-29.048a7.12 7.12 0 00-7.111 7.111v8.148a1 1 0 11-2 0v-8.148c0-5.024 4.087-9.111 9.111-9.111h29.048c5.024 0 9.111 4.087 9.111 9.111v8.148a1 1 0 01-1 1zm-50-.666a1 1 0 01-1-1v-8.148a7.12 7.12 0 00-7.111-7.111H55.898c-3.921 0-7.112 3.19-7.112 7.111v8.148a1 1 0 01-2 0v-8.148c0-5.024 4.087-9.111 9.112-9.111h29.048c5.024 0 9.111 4.087 9.111 9.111v8.148a.999.999 0 01-.999 1z"/><path d="M47.725 50.737a1 1 0 01-1-1v-8.148a7.12 7.12 0 00-7.111-7.111h-3.946a1 1 0 010-2h3.946c5.024 0 9.111 4.087 9.111 9.111v8.148a1 1 0 01-1 1zm95.834 15.408a1 1 0 01-1-1V9.43c0-4.014-3.267-7.28-7.281-7.28h-29.93a6.662 6.662 0 00-6.655 6.655v41.338a1 1 0 11-2 0V8.805c0-4.772 3.883-8.655 8.655-8.655h29.93c5.118 0 9.281 4.163 9.281 9.28v55.714a1 1 0 01-1 1.001zm-35.182 6.886H98.195a1 1 0 01-1-1v-5.92a1 1 0 112 0v4.92h8.182v-4.92a1 1 0 112 0v5.92a1 1 0 01-1 1z"/><path d="M143.135 73.031h-10.183a1 1 0 01-1-1v-5.92a1 1 0 112 0v4.92h8.183v-4.92a1 1 0 112 0v5.92a1 1 0 01-1 1z"/><path d="M142.953 67.111H98.166a1 1 0 01-1-1V50.403a1 1 0 011-1h44.787a1 1 0 011 1v15.708a1 1 0 01-1 1zm-43.787-2h42.787V51.403H99.166v13.708zm38.957-44.25h-34.5a1 1 0 110-2h34.5a1 1 0 110 2z"/><path d="M109.792 25.111a1 1 0 01-1-1v-9.25a1 1 0 112 0v9.25a1 1 0 01-1 1zm22.875 0a1 1 0 01-1-1v-9.25a1 1 0 112 0v9.25a1 1 0 01-1 1zM43 67.153H1a1 1 0 01-1-1v-33a1 1 0 011-1h32c6.065 0 11 4.935 11 11v23a1 1 0 01-1 1zm-41-2h40v-22c0-4.962-4.038-9-9-9H2v31z"/></svg>