<svg width="12" height="7" fill="none" xmlns="http://www.w3.org/2000/svg"><path d="M11.726.475C11.81.2 11.726 0 11.33 0h-1.312c-.334 0-.488.173-.57.365 0 0-.669 1.6-1.613 2.636-.305.3-.446.396-.613.396-.082 0-.21-.096-.21-.37V.475C7.013.147 6.92 0 6.643 0H4.58c-.21 0-.334.153-.334.295 0 .31.472.383.521 1.258v1.899c0 .416-.076.492-.243.492-.445 0-1.528-1.606-2.17-3.443C2.226.144 2.099 0 1.763 0H.45C.076 0 0 .173 0 .365c0 .342.446 2.037 2.074 4.277C3.159 6.17 4.687 7 6.077 7c.835 0 .938-.184.938-.5 0-1.462-.076-1.6.343-1.6.194 0 .528.096 1.308.833C9.556 6.608 9.704 7 10.203 7h1.312c.374 0 .563-.184.454-.547-.25-.763-1.935-2.334-2.011-2.439-.194-.245-.138-.354 0-.573.002-.002 1.604-2.216 1.768-2.966z" fill="#404040"/></svg>