<svg width="82" height="17" fill="none" xmlns="http://www.w3.org/2000/svg"><path d="M4.656 13.144c-.704 0-1.344-.16-1.92-.48a3.73 3.73 0 01-1.36-1.312A3.67 3.67 0 01.88 9.464c0-.15.043-.272.128-.368a.444.444 0 01.368-.16c.15 0 .267.053.352.16a.533.533 0 01.128.368c0 .512.123.976.368 1.392.256.405.592.73 1.008.976.427.235.901.352 1.424.352.917 0 1.621-.256 2.112-.768.501-.523.752-1.168.752-1.936 0-.576-.123-1.067-.368-1.472a2.39 2.39 0 00-1.008-.944 2.922 2.922 0 00-1.408-.336.511.511 0 01-.352-.128.511.511 0 01-.128-.352c0-.139.043-.25.128-.336a.479.479 0 01.352-.144 2.13 2.13 0 001.136-.304c.341-.213.608-.49.8-.832.203-.341.304-.71.304-1.104 0-.63-.203-1.152-.608-1.568-.405-.427-.965-.64-1.68-.64-.48 0-.901.09-1.264.272a2.079 2.079 0 00-.848.752c-.203.31-.304.667-.304 1.072a.479.479 0 01-.144.352.476.476 0 01-.352.128.447.447 0 01-.352-.144.49.49 0 01-.128-.336c0-.576.144-1.093.432-1.552a3.042 3.042 0 011.2-1.088c.512-.267 1.099-.4 1.76-.4.619 0 1.173.139 1.664.416.49.277.88.656 1.168 1.136a3 3 0 01.432 1.6c0 .32-.085.661-.256 1.024-.16.352-.384.677-.672.976a3.195 3.195 0 01-.976.672c.544.139.997.379 1.36.72.363.33.635.72.816 1.168.181.448.272.912.272 1.392 0 .693-.165 1.317-.496 1.872-.33.555-.784.992-1.36 1.312-.576.32-1.237.48-1.984.48zm9.219 0c-.704 0-1.344-.16-1.92-.48a3.729 3.729 0 01-1.36-1.312 3.67 3.67 0 01-.496-1.888c0-.15.042-.272.128-.368a.444.444 0 01.368-.16c.15 0 .266.053.352.16a.533.533 0 01.128.368c0 .512.122.976.368 1.392.256.405.592.73 1.008.976.426.235.901.352 1.424.352.917 0 1.621-.256 2.112-.768.501-.523.752-1.168.752-1.936 0-.576-.123-1.067-.368-1.472a2.39 2.39 0 00-1.008-.944 2.922 2.922 0 00-1.408-.336.51.51 0 01-.352-.128.51.51 0 01-.128-.352c0-.139.042-.25.128-.336a.479.479 0 01.352-.144 2.13 2.13 0 001.136-.304c.341-.213.608-.49.8-.832.202-.341.304-.71.304-1.104 0-.63-.203-1.152-.608-1.568-.406-.427-.966-.64-1.68-.64-.48 0-.902.09-1.264.272a2.078 2.078 0 00-.848.752c-.203.31-.304.667-.304 1.072a.479.479 0 01-.144.352.476.476 0 01-.352.128.447.447 0 01-.352-.144.49.49 0 01-.128-.336c0-.576.144-1.093.432-1.552a3.042 3.042 0 011.2-1.088c.512-.267 1.098-.4 1.76-.4.618 0 1.173.139 1.664.416.49.277.88.656 1.168 1.136a3 3 0 01.432 1.6c0 .32-.086.661-.256 1.024-.16.352-.384.677-.672.976a3.196 3.196 0 01-.976.672c.544.139.997.379 1.36.72.362.33.634.72.816 1.168.181.448.272.912.272 1.392 0 .693-.166 1.317-.496 1.872-.33.555-.784.992-1.36 1.312-.576.32-1.238.48-1.984.48zm10.003-.048c-.875 0-1.648-.192-2.32-.576a4.183 4.183 0 01-1.584-1.584c-.384-.672-.576-1.44-.576-2.304 0-.875.197-1.648.591-2.32.395-.672.928-1.2 1.6-1.584.683-.384 1.446-.576 2.289-.576.874 0 1.642.192 2.303.576.672.384 1.2.912 1.584 1.584.384.672.576 1.445.576 2.32l-.56.64c0 .747-.165 1.408-.495 1.984a3.584 3.584 0 01-1.377 1.36c-.586.32-1.264.48-2.031.48zm.064 3.248c-.886 0-1.643-.165-2.273-.496a4.836 4.836 0 01-1.535-1.264.53.53 0 01-.128-.336c0-.117.053-.213.16-.288a.454.454 0 01.367-.096c.15.021.262.09.336.208.331.395.753.72 1.265.976.511.267 1.114.4 1.808.4.66 0 1.247-.16 1.76-.48.522-.32.933-.763 1.231-1.328.3-.555.448-1.179.448-1.872V9.224l.433-.592h.527v3.136c0 .864-.192 1.643-.576 2.336a4.273 4.273 0 01-1.567 1.632c-.662.405-1.414.608-2.256.608zm-.064-4.144c.682 0 1.285-.15 1.808-.448.533-.31.949-.73 1.247-1.264.3-.544.448-1.163.448-1.856 0-.704-.149-1.323-.448-1.856a3.163 3.163 0 00-1.247-1.264c-.523-.31-1.126-.464-1.808-.464-.683 0-1.291.155-1.825.464a3.17 3.17 0 00-1.248 1.264c-.298.533-.447 1.152-.447 1.856 0 .693.149 1.312.447 1.856.3.533.715.955 1.248 1.264.534.299 1.142.448 1.825.448zm10.747.912c-.768 0-1.456-.155-2.064-.464a3.651 3.651 0 01-1.456-1.392c-.352-.608-.528-1.35-.528-2.224V4.728c0-.139.042-.25.128-.336a.479.479 0 01.352-.144c.139 0 .25.048.336.144a.428.428 0 01.144.336v4.304c0 .693.133 1.275.4 1.744.277.459.645.805 1.104 1.04.47.224.997.336 1.584.336a3.49 3.49 0 001.552-.336 2.834 2.834 0 001.088-.896c.267-.384.4-.816.4-1.296h.8a3.619 3.619 0 01-.592 1.792c-.352.523-.81.939-1.376 1.248-.555.299-1.179.448-1.872.448zm3.52-.112a.511.511 0 01-.352-.128.51.51 0 01-.128-.352V4.728c0-.15.043-.267.128-.352a.51.51 0 01.352-.128c.15 0 .266.043.352.128a.476.476 0 01.128.352v7.792a.511.511 0 01-.128.352.476.476 0 01-.352.128zm3.837 0a.511.511 0 01-.352-.128.511.511 0 01-.128-.352V4.712a.513.513 0 01.145-.336.454.454 0 01.336-.128c.149 0 .266.043.352.128a.476.476 0 01.127.352v3.248h3.552v.16c.544 0 1.02.101 1.424.304.416.203.742.48.976.832.235.352.352.757.352 1.216 0 .49-.117.928-.352 1.312a2.44 2.44 0 01-.976.88c-.405.213-.88.32-1.424.32h-4.032zm.48-.864h3.552c.534 0 .966-.133 1.296-.4.331-.277.496-.693.496-1.248 0-.565-.165-.981-.495-1.248-.331-.267-.763-.4-1.297-.4h-3.552v3.296zm1.76-3.584v-.576h1.633c.437 0 .794-.133 1.072-.4.288-.267.431-.613.431-1.04 0-.395-.143-.73-.431-1.008-.278-.277-.635-.416-1.072-.416h-3.84v-.864h3.84c.48 0 .9.096 1.264.288.373.192.666.464.88.816.213.341.32.736.32 1.184 0 .725-.23 1.243-.689 1.552-.458.31-1.05.464-1.776.464h-1.632zm10.702 4.544c-.853 0-1.621-.192-2.304-.576a4.425 4.425 0 01-1.6-1.6c-.384-.683-.576-1.445-.576-2.288 0-.853.192-1.616.576-2.288a4.266 4.266 0 011.6-1.6c.683-.395 1.451-.592 2.304-.592.854 0 1.616.197 2.288.592.672.384 1.2.917 1.584 1.6.395.672.592 1.435.592 2.288l-.4.64c0 .725-.181 1.376-.544 1.952a3.88 3.88 0 01-1.44 1.376c-.608.33-1.301.496-2.08.496zm0-.896c.672 0 1.27-.155 1.792-.464.534-.32.95-.747 1.248-1.28.31-.544.464-1.152.464-1.824 0-.683-.154-1.29-.464-1.824a3.273 3.273 0 00-1.248-1.28c-.522-.32-1.12-.48-1.792-.48-.661 0-1.258.16-1.792.48a3.4 3.4 0 00-1.264 1.28c-.309.533-.464 1.141-.464 1.824 0 .672.155 1.28.464 1.824.31.533.731.96 1.264 1.28.534.31 1.131.464 1.792.464zm3.984.8a.511.511 0 01-.352-.128.51.51 0 01-.128-.352V9.592l.304-.96h.656v3.888a.511.511 0 01-.128.352.476.476 0 01-.352.128zm10.444 0a.511.511 0 01-.352-.128.51.51 0 01-.128-.352V4.728c0-.15.042-.267.128-.352a.51.51 0 01.352-.128c.15 0 .266.043.352.128a.476.476 0 01.128.352v7.792a.511.511 0 01-.128.352.476.476 0 01-.352.128zm-7.088 0a.511.511 0 01-.352-.128.51.51 0 01-.128-.352V4.728c0-.15.042-.267.128-.352a.51.51 0 01.352-.128c.15 0 .266.043.352.128a.476.476 0 01.128.352v7.792a.511.511 0 01-.128.352.476.476 0 01-.352.128zm.272-3.888v-.864h6.736v.864h-6.736zm14.17 3.984c-.854 0-1.622-.192-2.304-.576a4.425 4.425 0 01-1.6-1.6c-.384-.683-.576-1.445-.576-2.288 0-.853.192-1.616.576-2.288a4.267 4.267 0 011.6-1.6c.682-.395 1.45-.592 2.304-.592.853 0 1.616.197 2.288.592.672.384 1.2.917 1.584 1.6.394.672.592 1.435.592 2.288l-.4.64c0 .725-.182 1.376-.544 1.952a3.88 3.88 0 01-1.44 1.376c-.608.33-1.302.496-2.08.496zm0-.896c.672 0 1.269-.155 1.792-.464a3.42 3.42 0 001.248-1.28 3.628 3.628 0 00.464-1.824c0-.683-.155-1.29-.464-1.824a3.272 3.272 0 00-1.248-1.28c-.523-.32-1.12-.48-1.792-.48-.662 0-1.259.16-1.792.48-.534.31-.955.736-1.264 1.28-.31.533-.464 1.141-.464 1.824 0 .672.154 1.28.464 1.824.309.533.73.96 1.264 1.28.533.31 1.13.464 1.792.464zm3.984.8a.511.511 0 01-.352-.128.511.511 0 01-.128-.352V9.592l.304-.96h.656v3.888a.51.51 0 01-.128.352.476.476 0 01-.352.128z" fill="#404040"/></svg>