<svg width="82" height="17" viewBox="0 0 82 17" fill="none" xmlns="http://www.w3.org/2000/svg">
<path d="M4.656 13.144C3.952 13.144 3.312 12.984 2.736 12.664C2.17067 12.344 1.71733 11.9067 1.376 11.352C1.04533 10.7867 0.88 10.1573 0.88 9.464C0.88 9.31467 0.922667 9.192 1.008 9.096C1.09333 8.98933 1.216 8.936 1.376 8.936C1.52533 8.936 1.64267 8.98933 1.728 9.096C1.81333 9.192 1.856 9.31467 1.856 9.464C1.856 9.976 1.97867 10.44 2.224 10.856C2.48 11.2613 2.816 11.5867 3.232 11.832C3.65867 12.0667 4.13333 12.184 4.656 12.184C5.57333 12.184 6.27733 11.928 6.768 11.416C7.26933 10.8933 7.52 10.248 7.52 9.48C7.52 8.904 7.39733 8.41333 7.152 8.008C6.90667 7.592 6.57067 7.27733 6.144 7.064C5.728 6.84 5.25867 6.728 4.736 6.728C4.59733 6.728 4.48 6.68533 4.384 6.6C4.29867 6.504 4.256 6.38667 4.256 6.248C4.256 6.10933 4.29867 5.99733 4.384 5.912C4.48 5.816 4.59733 5.768 4.736 5.768C5.16267 5.768 5.54133 5.66667 5.872 5.464C6.21333 5.25067 6.48 4.97333 6.672 4.632C6.87467 4.29067 6.976 3.92267 6.976 3.528C6.976 2.89867 6.77333 2.376 6.368 1.96C5.96267 1.53333 5.40267 1.32 4.688 1.32C4.208 1.32 3.78667 1.41067 3.424 1.592C3.06133 1.77333 2.77867 2.024 2.576 2.344C2.37333 2.65333 2.272 3.01067 2.272 3.416C2.272 3.55467 2.224 3.672 2.128 3.768C2.04267 3.85333 1.92533 3.896 1.776 3.896C1.62667 3.896 1.50933 3.848 1.424 3.752C1.33867 3.656 1.296 3.544 1.296 3.416C1.296 2.84 1.44 2.32267 1.728 1.864C2.016 1.40533 2.416 1.04267 2.928 0.775999C3.44 0.509333 4.02667 0.375999 4.688 0.375999C5.30667 0.375999 5.86133 0.514666 6.352 0.792C6.84267 1.06933 7.232 1.448 7.52 1.928C7.808 2.39733 7.952 2.93067 7.952 3.528C7.952 3.848 7.86667 4.18933 7.696 4.552C7.536 4.904 7.312 5.22933 7.024 5.528C6.736 5.816 6.41067 6.04 6.048 6.2C6.592 6.33867 7.04533 6.57867 7.408 6.92C7.77067 7.25067 8.04267 7.64 8.224 8.088C8.40533 8.536 8.496 9 8.496 9.48C8.496 10.1733 8.33067 10.7973 8 11.352C7.66933 11.9067 7.216 12.344 6.64 12.664C6.064 12.984 5.40267 13.144 4.656 13.144ZM13.8748 13.144C13.1708 13.144 12.5308 12.984 11.9548 12.664C11.3894 12.344 10.9361 11.9067 10.5948 11.352C10.2641 10.7867 10.0988 10.1573 10.0988 9.464C10.0988 9.31467 10.1414 9.192 10.2268 9.096C10.3121 8.98933 10.4348 8.936 10.5948 8.936C10.7441 8.936 10.8614 8.98933 10.9468 9.096C11.0321 9.192 11.0748 9.31467 11.0748 9.464C11.0748 9.976 11.1974 10.44 11.4428 10.856C11.6988 11.2613 12.0348 11.5867 12.4508 11.832C12.8774 12.0667 13.3521 12.184 13.8748 12.184C14.7921 12.184 15.4961 11.928 15.9868 11.416C16.4881 10.8933 16.7388 10.248 16.7388 9.48C16.7388 8.904 16.6161 8.41333 16.3708 8.008C16.1254 7.592 15.7894 7.27733 15.3628 7.064C14.9468 6.84 14.4774 6.728 13.9548 6.728C13.8161 6.728 13.6988 6.68533 13.6028 6.6C13.5174 6.504 13.4748 6.38667 13.4748 6.248C13.4748 6.10933 13.5174 5.99733 13.6028 5.912C13.6988 5.816 13.8161 5.768 13.9548 5.768C14.3814 5.768 14.7601 5.66667 15.0908 5.464C15.4321 5.25067 15.6988 4.97333 15.8908 4.632C16.0934 4.29067 16.1948 3.92267 16.1948 3.528C16.1948 2.89867 15.9921 2.376 15.5868 1.96C15.1814 1.53333 14.6214 1.32 13.9068 1.32C13.4268 1.32 13.0054 1.41067 12.6428 1.592C12.2801 1.77333 11.9974 2.024 11.7948 2.344C11.5921 2.65333 11.4908 3.01067 11.4908 3.416C11.4908 3.55467 11.4428 3.672 11.3468 3.768C11.2614 3.85333 11.1441 3.896 10.9948 3.896C10.8454 3.896 10.7281 3.848 10.6428 3.752C10.5574 3.656 10.5148 3.544 10.5148 3.416C10.5148 2.84 10.6588 2.32267 10.9468 1.864C11.2348 1.40533 11.6348 1.04267 12.1468 0.775999C12.6588 0.509333 13.2454 0.375999 13.9068 0.375999C14.5254 0.375999 15.0801 0.514666 15.5708 0.792C16.0614 1.06933 16.4508 1.448 16.7388 1.928C17.0268 2.39733 17.1708 2.93067 17.1708 3.528C17.1708 3.848 17.0854 4.18933 16.9148 4.552C16.7548 4.904 16.5308 5.22933 16.2428 5.528C15.9548 5.816 15.6294 6.04 15.2668 6.2C15.8108 6.33867 16.2641 6.57867 16.6268 6.92C16.9894 7.25067 17.2614 7.64 17.4427 8.088C17.6241 8.536 17.7148 9 17.7148 9.48C17.7148 10.1733 17.5494 10.7973 17.2188 11.352C16.8881 11.9067 16.4348 12.344 15.8588 12.664C15.2828 12.984 14.6214 13.144 13.8748 13.144ZM23.8775 13.096C23.0028 13.096 22.2295 12.904 21.5575 12.52C20.8855 12.136 20.3575 11.608 19.9735 10.936C19.5895 10.264 19.3975 9.496 19.3975 8.632C19.3975 7.75733 19.5948 6.984 19.9895 6.312C20.3842 5.64 20.9175 5.112 21.5895 4.728C22.2722 4.344 23.0348 4.152 23.8775 4.152C24.7522 4.152 25.5202 4.344 26.1815 4.728C26.8535 5.112 27.3815 5.64 27.7655 6.312C28.1495 6.984 28.3415 7.75733 28.3415 8.632L27.7815 9.272C27.7815 10.0187 27.6162 10.68 27.2855 11.256C26.9548 11.832 26.4962 12.2853 25.9095 12.616C25.3228 12.936 24.6455 13.096 23.8775 13.096ZM23.9415 16.344C23.0562 16.344 22.2988 16.1787 21.6695 15.848C21.0508 15.5173 20.5388 15.096 20.1335 14.584C20.0482 14.4773 20.0055 14.3653 20.0055 14.248C20.0055 14.1307 20.0588 14.0347 20.1655 13.96C20.2722 13.8747 20.3948 13.8427 20.5335 13.864C20.6828 13.8853 20.7948 13.9547 20.8695 14.072C21.2002 14.4667 21.6215 14.792 22.1335 15.048C22.6455 15.3147 23.2482 15.448 23.9415 15.448C24.6028 15.448 25.1895 15.288 25.7015 14.968C26.2242 14.648 26.6348 14.2053 26.9335 13.64C27.2322 13.0853 27.3815 12.4613 27.3815 11.768V9.224L27.8135 8.632H28.3415V11.768C28.3415 12.632 28.1495 13.4107 27.7655 14.104C27.3815 14.7973 26.8588 15.3413 26.1975 15.736C25.5362 16.1413 24.7842 16.344 23.9415 16.344ZM23.8775 12.2C24.5602 12.2 25.1628 12.0507 25.6855 11.752C26.2188 11.4427 26.6348 11.0213 26.9335 10.488C27.2322 9.944 27.3815 9.32533 27.3815 8.632C27.3815 7.928 27.2322 7.30933 26.9335 6.776C26.6348 6.232 26.2188 5.81067 25.6855 5.512C25.1628 5.20267 24.5602 5.048 23.8775 5.048C23.1948 5.048 22.5868 5.20267 22.0535 5.512C21.5202 5.81067 21.1042 6.232 20.8055 6.776C20.5068 7.30933 20.3575 7.928 20.3575 8.632C20.3575 9.32533 20.5068 9.944 20.8055 10.488C21.1042 11.0213 21.5202 11.4427 22.0535 11.752C22.5868 12.0507 23.1948 12.2 23.8775 12.2ZM34.6249 13.112C33.8569 13.112 33.1689 12.9573 32.5609 12.648C31.9529 12.328 31.4675 11.864 31.1049 11.256C30.7529 10.648 30.5769 9.90667 30.5769 9.032V4.728C30.5769 4.58933 30.6195 4.47733 30.7049 4.392C30.8009 4.296 30.9182 4.248 31.0569 4.248C31.1955 4.248 31.3075 4.296 31.3929 4.392C31.4889 4.47733 31.5369 4.58933 31.5369 4.728V9.032C31.5369 9.72533 31.6702 10.3067 31.9369 10.776C32.2142 11.2347 32.5822 11.5813 33.0409 11.816C33.5102 12.04 34.0382 12.152 34.6249 12.152C35.2009 12.152 35.7182 12.04 36.1769 11.816C36.6355 11.592 36.9982 11.2933 37.2649 10.92C37.5315 10.536 37.6649 10.104 37.6649 9.624H38.4649C38.4222 10.2853 38.2249 10.8827 37.8729 11.416C37.5209 11.9387 37.0622 12.3547 36.4969 12.664C35.9422 12.9627 35.3182 13.112 34.6249 13.112ZM38.1449 13C38.0062 13 37.8889 12.9573 37.7929 12.872C37.7075 12.776 37.6649 12.6587 37.6649 12.52V4.728C37.6649 4.57867 37.7075 4.46133 37.7929 4.376C37.8889 4.29067 38.0062 4.248 38.1449 4.248C38.2942 4.248 38.4115 4.29067 38.4969 4.376C38.5822 4.46133 38.6249 4.57867 38.6249 4.728V12.52C38.6249 12.6587 38.5822 12.776 38.4969 12.872C38.4115 12.9573 38.2942 13 38.1449 13ZM41.9825 13C41.8438 13 41.7265 12.9573 41.6305 12.872C41.5452 12.776 41.5025 12.6587 41.5025 12.52V4.712C41.5132 4.57333 41.5612 4.46133 41.6465 4.376C41.7318 4.29067 41.8438 4.248 41.9825 4.248C42.1318 4.248 42.2492 4.29067 42.3345 4.376C42.4198 4.46133 42.4625 4.57867 42.4625 4.728V7.976H46.0145V8.136C46.5585 8.136 47.0332 8.23733 47.4385 8.44C47.8545 8.64267 48.1798 8.92 48.4145 9.272C48.6492 9.624 48.7665 10.0293 48.7665 10.488C48.7665 10.9787 48.6492 11.416 48.4145 11.8C48.1798 12.1733 47.8545 12.4667 47.4385 12.68C47.0332 12.8933 46.5585 13 46.0145 13H41.9825ZM42.4625 12.136H46.0145C46.5478 12.136 46.9798 12.0027 47.3105 11.736C47.6412 11.4587 47.8065 11.0427 47.8065 10.488C47.8065 9.92267 47.6412 9.50667 47.3105 9.24C46.9798 8.97333 46.5478 8.84 46.0145 8.84H42.4625V12.136ZM44.2225 8.552V7.976H45.8545C46.2918 7.976 46.6492 7.84267 46.9265 7.576C47.2145 7.30933 47.3585 6.96267 47.3585 6.536C47.3585 6.14133 47.2145 5.80533 46.9265 5.528C46.6492 5.25067 46.2918 5.112 45.8545 5.112H42.0145V4.248H45.8545C46.3345 4.248 46.7558 4.344 47.1185 4.536C47.4918 4.728 47.7852 5 47.9985 5.352C48.2118 5.69333 48.3185 6.088 48.3185 6.536C48.3185 7.26133 48.0892 7.77867 47.6305 8.088C47.1718 8.39733 46.5798 8.552 45.8545 8.552H44.2225ZM54.9244 13.096C54.071 13.096 53.303 12.904 52.6204 12.52C51.9484 12.1253 51.415 11.592 51.0204 10.92C50.6364 10.2373 50.4444 9.47467 50.4444 8.632C50.4444 7.77867 50.6364 7.016 51.0204 6.344C51.415 5.66133 51.9484 5.128 52.6204 4.744C53.303 4.34933 54.071 4.152 54.9244 4.152C55.7777 4.152 56.5404 4.34933 57.2124 4.744C57.8844 5.128 58.4124 5.66133 58.7964 6.344C59.191 7.016 59.3884 7.77867 59.3884 8.632L58.9884 9.272C58.9884 9.99733 58.807 10.648 58.4444 11.224C58.0924 11.8 57.6124 12.2587 57.0044 12.6C56.3964 12.9307 55.703 13.096 54.9244 13.096ZM54.9244 12.2C55.5964 12.2 56.1937 12.0453 56.7164 11.736C57.2497 11.416 57.6657 10.9893 57.9644 10.456C58.2737 9.912 58.4284 9.304 58.4284 8.632C58.4284 7.94933 58.2737 7.34133 57.9644 6.808C57.6657 6.264 57.2497 5.83733 56.7164 5.528C56.1937 5.208 55.5964 5.048 54.9244 5.048C54.263 5.048 53.6657 5.208 53.1324 5.528C52.599 5.83733 52.1777 6.264 51.8684 6.808C51.559 7.34133 51.4044 7.94933 51.4044 8.632C51.4044 9.304 51.559 9.912 51.8684 10.456C52.1777 10.9893 52.599 11.416 53.1324 11.736C53.6657 12.0453 54.263 12.2 54.9244 12.2ZM58.9084 13C58.7697 13 58.6524 12.9573 58.5564 12.872C58.471 12.776 58.4284 12.6587 58.4284 12.52V9.592L58.7324 8.632H59.3884V12.52C59.3884 12.6587 59.3457 12.776 59.2604 12.872C59.175 12.9573 59.0577 13 58.9084 13ZM69.3518 13C69.2131 13 69.0958 12.9573 68.9998 12.872C68.9144 12.776 68.8718 12.6587 68.8718 12.52V4.728C68.8718 4.57867 68.9144 4.46133 68.9998 4.376C69.0958 4.29067 69.2131 4.248 69.3518 4.248C69.5011 4.248 69.6184 4.29067 69.7038 4.376C69.7891 4.46133 69.8318 4.57867 69.8318 4.728V12.52C69.8318 12.6587 69.7891 12.776 69.7038 12.872C69.6184 12.9573 69.5011 13 69.3518 13ZM62.2638 13C62.1251 13 62.0078 12.9573 61.9118 12.872C61.8264 12.776 61.7838 12.6587 61.7838 12.52V4.728C61.7838 4.57867 61.8264 4.46133 61.9118 4.376C62.0078 4.29067 62.1251 4.248 62.2638 4.248C62.4131 4.248 62.5304 4.29067 62.6158 4.376C62.7011 4.46133 62.7438 4.57867 62.7438 4.728V12.52C62.7438 12.6587 62.7011 12.776 62.6158 12.872C62.5304 12.9573 62.4131 13 62.2638 13ZM62.5358 9.112V8.248H69.2718V9.112H62.5358ZM76.7056 13.096C75.8523 13.096 75.0843 12.904 74.4016 12.52C73.7296 12.1253 73.1963 11.592 72.8016 10.92C72.4176 10.2373 72.2256 9.47467 72.2256 8.632C72.2256 7.77867 72.4176 7.016 72.8016 6.344C73.1963 5.66133 73.7296 5.128 74.4016 4.744C75.0843 4.34933 75.8523 4.152 76.7056 4.152C77.559 4.152 78.3216 4.34933 78.9936 4.744C79.6656 5.128 80.1936 5.66133 80.5776 6.344C80.9723 7.016 81.1696 7.77867 81.1696 8.632L80.7696 9.272C80.7696 9.99733 80.5883 10.648 80.2256 11.224C79.8736 11.8 79.3936 12.2587 78.7856 12.6C78.1776 12.9307 77.4843 13.096 76.7056 13.096ZM76.7056 12.2C77.3776 12.2 77.975 12.0453 78.4976 11.736C79.031 11.416 79.447 10.9893 79.7456 10.456C80.055 9.912 80.2096 9.304 80.2096 8.632C80.2096 7.94933 80.055 7.34133 79.7456 6.808C79.447 6.264 79.031 5.83733 78.4976 5.528C77.975 5.208 77.3776 5.048 76.7056 5.048C76.0443 5.048 75.447 5.208 74.9136 5.528C74.3803 5.83733 73.959 6.264 73.6496 6.808C73.3403 7.34133 73.1856 7.94933 73.1856 8.632C73.1856 9.304 73.3403 9.912 73.6496 10.456C73.959 10.9893 74.3803 11.416 74.9136 11.736C75.447 12.0453 76.0443 12.2 76.7056 12.2ZM80.6896 13C80.551 13 80.4336 12.9573 80.3376 12.872C80.2523 12.776 80.2096 12.6587 80.2096 12.52V9.592L80.5136 8.632H81.1696V12.52C81.1696 12.6587 81.127 12.776 81.0416 12.872C80.9563 12.9573 80.839 13 80.6896 13Z" fill="#404040"/>
</svg>
